<?xml version="1.0" encoding="UTF-8" standalone="no"?>
<!-- Created with Inkscape (http://www.inkscape.org/) -->

<svg
   width="277.24365mm"
   height="282.31198mm"
   viewBox="0 0 277.24365 282.31198"
   version="1.1"
   id="svg5"
   xml:space="preserve"
   xmlns:xlink="http://www.w3.org/1999/xlink"
   xmlns="http://www.w3.org/2000/svg"
   xmlns:svg="http://www.w3.org/2000/svg"><defs
     id="defs2"><linearGradient
       id="linearGradient7299"><stop
         style="stop-color:#254898;stop-opacity:1;"
         offset="0"
         id="stop7295" /><stop
         style="stop-color:#29b47a;stop-opacity:1;"
         offset="1"
         id="stop7297" /></linearGradient><rect
       x="-2230.25"
       y="97.867188"
       width="763.1875"
       height="438.5"
       id="rect2769" /><rect
       x="-1996.4922"
       y="-72.78125"
       width="23.320312"
       height="80.140625"
       id="rect2763" /><rect
       x="-2230.25"
       y="97.867188"
       width="763.1875"
       height="438.5"
       id="rect2769-3" /><radialGradient
       xlink:href="#linearGradient7299"
       id="radialGradient4379-4-96-9"
       cx="154.33214"
       cy="148.70966"
       fx="154.33214"
       fy="148.70966"
       r="146.4007"
       gradientTransform="matrix(0.98604014,0,0,0.94484604,-4.5122767,12.559092)"
       gradientUnits="userSpaceOnUse" /></defs><g
     id="layer1"
     transform="translate(10.070263,-27.771491)"><path
       id="path179-3-5-9-9-7-7-2-1-0"
       style="fill:url(#radialGradient4379-4-96-9);fill-opacity:1;stroke-width:0.519588"
       d="m 181.13996,27.771697 c -0.2284,-0.0367 3.74693,4.834862 8.83512,10.825696 l 9.2506,10.893392 4.2323,0.623735 c 2.3273,0.342619 8.92214,1.329979 14.65544,2.194698 5.73359,0.864719 14.91909,2.220093 20.41219,3.011702 5.49309,0.791609 10.01608,1.554968 10.05158,1.696537 0.036,0.14169 0.0718,2.037049 0.0718,4.212146 0.01,2.175088 0.0543,13.52048 0.10904,25.211898 l 0.10025,21.256579 9.05991,10.82828 c 4.983,5.95513 9.12092,10.77254 9.19582,10.70478 0.1539,-0.13735 -0.0206,-32.703156 -0.19327,-36.175572 -0.061,-1.228559 -0.0572,-2.282799 0.01,-2.341459 0.064,-0.0593 0.065,-4.438431 0,-9.731706 -0.065,-5.293255 -0.15345,-14.698883 -0.19585,-20.901567 -0.043,-6.202664 -0.25739,-12.099747 -0.47749,-13.104626 -0.2502,-1.143219 -0.93186,-2.45405 -1.82056,-3.501078 -1.7978,-2.118058 -3.26565,-3.312728 -3.23805,-2.635499 0.012,0.28771 -0.19855,0.137144 -0.46715,-0.334346 -0.6344,-1.113879 3.30909,-0.427711 -35.65777,-6.203756 -20.59341,-3.052666 -43.27206,-6.423486 -43.93376,-6.529834 z m 1.38286,0.924492 c 0.3125,0.0582 0.6641,0.21728 0.7798,0.3545 0.116,0.13679 0.089,0.35868 -0.061,0.49196 -0.1496,0.133589 -0.50089,-0.02619 -0.77979,-0.355017 -0.2787,-0.32846 -0.25123,-0.549083 0.061,-0.491443 z M 25.268857,39.022173 c -1.117599,-0.0106 -2.287863,0.112596 -3.500562,0.380856 -9.63909,2.133218 -21.10786341,15.988616 -23.7835608,28.732613 -3.7355962,17.791162 3.6962195,47.054378 18.9823038,74.743238 5.228695,9.46952 5.216574,9.53544 -3.006018,20.4432 -5.7569939,7.63718 -7.7177916,12.09093 -6.4884928,14.73915 1.3785986,2.96966 3.6946698,1.50429 10.6520628,-6.7386 l 8.891447,-10.53321 40.662634,61.7244 c 22.364378,33.94814 42.740959,66.35851 45.280959,72.02247 2.54,5.66387 6.21214,11.88663 8.16074,13.82862 9.54039,9.50664 4.4195,-22.34887 -7.77058,-48.33866 -3.7652,-8.02789 -21.558645,-37.8486 -39.540227,-66.26882 L 41.115435,142.0841 51.105006,127.58369 c 7.540192,-10.94545 9.341386,-15.14671 7.345288,-17.1359 -2.019698,-2.01273 -4.878477,0.32766 -12.10107,9.90895 -8.982491,11.91578 -9.677966,12.32193 -13.907161,8.10752 C 29.993565,126.02409 23.258745,115.1686 17.476051,104.34118 4.8749639,80.747049 2.1572972,63.62779 9.7431896,55.626328 14.702084,50.395703 16.007112,50.85066 19.808208,59.137741 c 1.256099,2.738598 4.764299,4.167097 9.315194,3.793567 6.576093,-0.539879 7.380952,-1.308081 8.117851,-7.753015 1.078899,-9.43403 -4.149004,-16.08027 -11.972396,-16.15612 z m 237.475423,3.320211 c 0.027,-0.001 0.0901,0.03511 0.19172,0.115239 0.4048,0.320569 0.94313,0.955497 1.19683,1.410766 0.2539,0.45526 -0.0768,0.192909 -0.73536,-0.58291 -0.4939,-0.582279 -0.73459,-0.937245 -0.65319,-0.943095 z m -62.53623,65.689016 -5.21415,0.0186 -39.50974,0.14366 -44.71871,0.16175 0.16484,45.33832 0.16227,45.33935 44.72182,-0.16175 44.72233,-0.16278 -0.16691,-45.33832 z m -10.38955,10.46551 0.12558,34.91001 0.12557,34.91157 -34.29403,0.12454 -34.29351,0.12299 -0.12558,-34.91002 -0.12764,-34.91156 34.29352,-0.12454 z M -9.932612,199.01034 c 4.95e-5,-4e-5 0.00253,0.003 0.00258,0.003 2.927e-4,-2.7e-4 2.229e-4,-0.002 5.167e-4,-0.003 z m 0.00258,0.003 c -0.353088,0.33535 0.027984,12.16894 0.3999755,12.407 0.2484998,0.15957 0.2485333,0.47509 0.00103,0.70332 -0.2482998,0.22732 -0.3967788,7.96148 -0.3291789,17.18706 0.068,9.22561 0.1694261,24.26634 0.225826,33.4238 0.066,10.70271 0.3923734,17.40007 0.9146729,18.75079 1.1297988,2.9217 3.7788584,5.47391 6.4688558,6.23166 1.1093988,0.31257 11.8739328,2.16115 23.9210197,4.1088 12.046888,1.94776 25.796963,4.19735 30.555758,4.99866 4.758896,0.80141 8.747642,1.41267 8.863543,1.35806 0.210999,-0.0998 -11.914395,-19.64404 -12.835393,-20.68866 -0.269099,-0.3052 -9.303821,-1.83489 -20.07681,-3.39928 C 17.406277,272.53024 8.572423,271.17434 8.548423,271.0813 8.502423,270.9 8.3103288,233.44326 8.3143288,225.21433 v -4.92942 L -0.75487759,209.59884 C -5.7387542,203.72674 -9.8634642,198.96733 -9.9300281,199.01292 Z m 2.7502197,3.80081 c 0.065,0.0531 0.3022878,0.30673 0.7270874,0.77979 1.6995983,1.89225 4.3930995,5.0655 5.9861979,7.0528 1.5931984,1.9872 0.20296286,0.43894 -3.0897339,-3.44061 -2.4694975,-2.90955 -3.8195512,-4.55115 -3.6235514,-4.39198 z m 10.092924,11.96877 c 0.027,-10e-4 0.090103,0.0352 0.1912028,0.11524 0.4047996,0.32046 0.9441599,0.95491 1.1978597,1.41025 0.2538997,0.45527 -0.07829,0.19343 -0.7363892,-0.58239 -0.4938995,-0.5823 -0.7341732,-0.93723 -0.6526733,-0.9431 z m 2.8737264,3.38584 c 0.027,-0.001 0.089703,0.0346 0.1912028,0.11473 0.4047996,0.32047 0.9435432,0.95591 1.1973429,1.41128 0.2537998,0.45526 -0.077773,0.19238 -0.7358724,-0.58343 -0.4939995,-0.58238 -0.7341732,-0.9367 -0.6526733,-0.94258 z" /></g></svg>
